<svg version="1.1" width="100" height="100" xmlns="http://www.w3.org/2000/svg" style="border: thin blue solid; transform: translate(-50%, -50%) scale(9.0) translate(50%, 50%);">
  <style>
    .font { font-weight: bold; font-size: 3pt; font-family: "Comic Sans MS", "Comic Sans", cursive; }
  </style>
  <filter id="blur1"><feGaussianBlur stdDeviation="0.175" /></filter>
  <filter id="blur2"><feGaussianBlur stdDeviation="0.1" /></filter>
  <clipPath id="clip"><rect x="15" y="35" width="70" height="30" rx="5" /></clipPath>
  <g clip-path="url(#clip)">
    <rect width="100" height="100" fill="rgba(27.0, 27.0, 27.0, 1.0)" />
    <path d="M 65 65 A 40 60 1 1 1 60 60 A 39.5 40 1 1 1 40 49.5 A 60 60 1 1 1 60 60 Z" fill="rgba(255.0, 0.0, 0.0, 0.0)" stroke="rgba(255.0, 0.0, 75.0, 1.0)" stroke-width="2.0" stroke-linecap="round" stroke-linejoin="round" filter="url(#blur1)"></path>
    <path d="M 65 75 A 65 70 1 1 1 60 71 A 52 60 1 1 1 50 60 A 60 70 1 1 1 60 70 Z" fill="rgba(255.0, 0.0, 0.0, 0.0)" stroke="rgba(255.0, 0.0, 75.0, 1.0)" stroke-width="2.0" stroke-linecap="round" stroke-linejoin="round"  filter="url(#blur1)"></path>
    <text class="font" x="54.3" y="45.5" text-anchor="middle" fill="rgba(255.0, 0.0, 90.0, 1.0)" filter="url(#blur2)">Strawberry</text>
    <text class="font" x="54.3" y="50.5" text-anchor="middle" fill="rgba(255.0, 0.0, 90.0, 1.0)" filter="url(#blur2)">Liquorice</text>
    <g>
      <circle cx="20" cy="38" r="2" fill="rgba(255.0, 0.0, 90.0, 1.0)" filter="url(#blur2)" />
      <circle cx="20" cy="38" r="1" fill="rgba(255.0, 255.0, 255.0, 1.0)" filter="url(#blur2)" />
    </g>
    <g>
      <circle cx="20" cy="62" r="2" fill="rgba(255.0, 0.0, 90.0, 1.0)" filter="url(#blur2)" />
      <circle cx="20" cy="62" r="1" fill="rgba(255.0, 255.0, 255.0, 1.0)" filter="url(#blur2)" />
    </g>
    <g>
      <circle cx="80" cy="38" r="2" fill="rgba(255.0, 0.0, 90.0, 1.0)" filter="url(#blur2)" />
      <circle cx="80" cy="38" r="1" fill="rgba(255.0, 255.0, 255.0, 1.0)" filter="url(#blur2)" />
    </g>
    <g>
      <circle cx="80" cy="62" r="2" fill="rgba(255.0, 0.0, 90.0, 1.0)" filter="url(#blur2)" />
      <circle cx="80" cy="62" r="1" fill="rgba(255.0, 255.0, 255.0, 1.0)" filter="url(#blur2)" />
    </g>
    <g>
      <rect x="69" y="46" width="6" height="1" fill="rgba(255.0, 0.0, 100.0, 0.5)" />
      <rect x="69" y="46" width="1" height="6" fill="rgba(255.0, 0.0, 100.0, 0.5)" />
      <rect x="69" y="51" width="6" height="1" fill="rgba(255.0, 0.0, 100.0, 0.5)" />
      <rect x="69" y="51" width="1" height="6" fill="rgba(255.0, 0.0, 100.0, 0.5)" />
      <rect x="69" y="56" width="6" height="1" fill="rgba(255.0, 0.0, 100.0, 0.5)" />
      <rect x="74" y="46" width="1" height="6" fill="rgba(255.0, 0.0, 100.0, 0.5)" />
      <rect x="74" y="51" width="1" height="6" fill="rgba(255.0, 0.0, 100.0, 0.5)" />
      <rect x="77" y="46" width="6" height="1" fill="rgba(255.0, 0.0, 100.0, 0.5)" />
      <rect x="77" y="46" width="1" height="6" fill="rgba(255.0, 0.0, 100.0, 0.5)" />
      <rect x="77" y="51" width="6" height="1" fill="rgba(255.0, 0.0, 100.0, 0.5)" />
      <rect x="77" y="51" width="1" height="6" fill="rgba(255.0, 0.0, 100.0, 0.5)" />
      <rect x="77" y="56" width="6" height="1" fill="rgba(255.0, 0.0, 100.0, 0.5)" />
      <rect x="82" y="46" width="1" height="6" fill="rgba(255.0, 0.0, 100.0, 0.5)" />
      <rect x="82" y="51" width="1" height="6" fill="rgba(255.0, 0.0, 100.0, 0.5)" />
      <rect x="67" y="44" width="18" height="15" fill="rgba(0.0, 0.0, 0.0, 0.0)" stroke="rgba(255.0, 255.0, 255.0, 1.0)" />
      <rect x="67" y="44" width="18" height="15" fill="rgba(64.0, 0.0, 20.0, 0.8)" />
    </g>
    <g>
      <rect x="24.25" y="36" width="51" height="5" fill="rgba(47.0, 47.0, 47.0, 1.0)" />
      <rect x="25.45" y="37" width="1.2" height="1.2" fill="rgba(255.0, 0.0, 100.0, 0.5)" />
      <rect x="25.45" y="39" width="1.2" height="1.2" fill="rgba(255.0, 0.0, 100.0, 0.5)" />
      <rect x="27.95" y="37" width="1.2" height="1.2" fill="rgba(255.0, 0.0, 100.0, 0.5)" />
      <rect x="27.95" y="39" width="1.2" height="1.2" fill="rgba(255.0, 0.0, 100.0, 0.5)" />
      <rect x="30.45" y="37" width="1.2" height="1.2" fill="rgba(255.0, 0.0, 100.0, 0.5)" />
      <rect x="30.45" y="39" width="1.2" height="1.2" fill="rgba(255.0, 0.0, 100.0, 0.5)" />
      <rect x="32.95" y="37" width="1.2" height="1.2" fill="rgba(255.0, 0.0, 100.0, 0.5)" />
      <rect x="32.95" y="39" width="1.2" height="1.2" fill="rgba(255.0, 0.0, 100.0, 0.5)" />
      <rect x="35.45" y="37" width="1.2" height="1.2" fill="rgba(255.0, 0.0, 100.0, 0.5)" />
      <rect x="35.45" y="39" width="1.2" height="1.2" fill="rgba(255.0, 0.0, 100.0, 0.5)" />
      <rect x="37.95" y="37" width="1.2" height="1.2" fill="rgba(255.0, 0.0, 100.0, 0.5)" />
      <rect x="37.95" y="39" width="1.2" height="1.2" fill="rgba(255.0, 0.0, 100.0, 0.5)" />
      <rect x="40.45" y="37" width="1.2" height="1.2" fill="rgba(255.0, 0.0, 100.0, 0.5)" />
      <rect x="40.45" y="39" width="1.2" height="1.2" fill="rgba(255.0, 0.0, 100.0, 0.5)" />
      <rect x="42.95" y="37" width="1.2" height="1.2" fill="rgba(255.0, 0.0, 100.0, 0.5)" />
      <rect x="42.95" y="39" width="1.2" height="1.2" fill="rgba(255.0, 0.0, 100.0, 0.5)" />
      <rect x="45.45" y="37" width="1.2" height="1.2" fill="rgba(255.0, 0.0, 100.0, 0.5)" />
      <rect x="45.45" y="39" width="1.2" height="1.2" fill="rgba(255.0, 0.0, 100.0, 0.5)" />
      <rect x="47.95" y="37" width="1.2" height="1.2" fill="rgba(255.0, 0.0, 100.0, 0.5)" />
      <rect x="47.95" y="39" width="1.2" height="1.2" fill="rgba(255.0, 0.0, 100.0, 0.5)" />
      <rect x="50.45" y="37" width="1.2" height="1.2" fill="rgba(255.0, 0.0, 100.0, 0.5)" />
      <rect x="50.45" y="39" width="1.2" height="1.2" fill="rgba(255.0, 0.0, 100.0, 0.5)" />
      <rect x="52.95" y="37" width="1.2" height="1.2" fill="rgba(255.0, 0.0, 100.0, 0.5)" />
      <rect x="52.95" y="39" width="1.2" height="1.2" fill="rgba(255.0, 0.0, 100.0, 0.5)" />
      <rect x="55.45" y="37" width="1.2" height="1.2" fill="rgba(255.0, 0.0, 100.0, 0.5)" />
      <rect x="55.45" y="39" width="1.2" height="1.2" fill="rgba(255.0, 0.0, 100.0, 0.5)" />
      <rect x="57.95" y="37" width="1.2" height="1.2" fill="rgba(255.0, 0.0, 100.0, 0.5)" />
      <rect x="57.95" y="39" width="1.2" height="1.2" fill="rgba(255.0, 0.0, 100.0, 0.5)" />
      <rect x="60.45" y="37" width="1.2" height="1.2" fill="rgba(255.0, 0.0, 100.0, 0.5)" />
      <rect x="60.45" y="39" width="1.2" height="1.2" fill="rgba(255.0, 0.0, 100.0, 0.5)" />
      <rect x="62.95" y="37" width="1.2" height="1.2" fill="rgba(255.0, 0.0, 100.0, 0.5)" />
      <rect x="62.95" y="39" width="1.2" height="1.2" fill="rgba(255.0, 0.0, 100.0, 0.5)" />
      <rect x="65.45" y="37" width="1.2" height="1.2" fill="rgba(255.0, 0.0, 100.0, 0.5)" />
      <rect x="65.45" y="39" width="1.2" height="1.2" fill="rgba(255.0, 0.0, 100.0, 0.5)" />
      <rect x="67.95" y="37" width="1.2" height="1.2" fill="rgba(255.0, 0.0, 100.0, 0.5)" />
      <rect x="67.95" y="39" width="1.2" height="1.2" fill="rgba(255.0, 0.0, 100.0, 0.5)" />
      <rect x="70.45" y="37" width="1.2" height="1.2" fill="rgba(255.0, 0.0, 100.0, 0.5)" />
      <rect x="70.45" y="39" width="1.2" height="1.2" fill="rgba(255.0, 0.0, 100.0, 0.5)" />
      <rect x="72.95" y="37" width="1.2" height="1.2" fill="rgba(255.0, 0.0, 100.0, 0.5)" />
      <rect x="72.95" y="39" width="1.2" height="1.2" fill="rgba(255.0, 0.0, 100.0, 0.5)" />
    </g>
    <g>
      <rect x="17.75" y="43" width="12.5" height="2.5" fill="rgba(47.0, 47.0, 47.0, 1.0)" />
      <rect x="18.45" y="43.65" width="1.2" height="1.2" fill="rgba(255.0, 0.0, 100.0, 0.5)" />
      <rect x="20.95" y="43.65" width="1.2" height="1.2" fill="rgba(255.0, 0.0, 100.0, 0.5)" />
      <rect x="23.45" y="43.65" width="1.2" height="1.2" fill="rgba(255.0, 0.0, 100.0, 0.5)" />
      <rect x="25.95" y="43.65" width="1.2" height="1.2" fill="rgba(255.0, 0.0, 100.0, 0.5)" />
      <rect x="28.45" y="43.65" width="1.2" height="1.2" fill="rgba(255.0, 0.0, 100.0, 0.5)" />
    </g>
    <g>
      <rect x="60.5" y="52" width="1" height="1" fill="rgba(100.0, 100.0, 100.0, 1.0)" />
      <rect x="60.5" y="57" width="1" height="1" fill="rgba(100.0, 100.0, 100.0, 1.0)" />
      <rect x="63.5" y="52" width="1" height="1" fill="rgba(100.0, 100.0, 100.0, 1.0)" />
      <rect x="63.5" y="57" width="1" height="1" fill="rgba(100.0, 100.0, 100.0, 1.0)" />
      <rect x="60" y="52.5" width="5" height="5" fill="rgba(127.0, 127.0, 127.0, 1.0)" />
      <circle cx="62.5" cy="55" r="1.5" fill="rgba(100.0, 0.0, 40.0, 0.8)" />
    </g>
  </g>
</svg>